<svg id="_0" data-name="0" version="1.1" viewBox="0 0 564.58 272.6" xmlns="http://www.w3.org/2000/svg" xmlns:xlink="http://www.w3.org/1999/xlink">
 <defs id="defs35">
  <style id="style2">.cls-1{fill:none;}.cls-2{clip-path:url(#clip-path);}.cls-3{clip-path:url(#clip-path-2);}.cls-4{fill:#4db0e7;}.cls-5{clip-path:url(#clip-path-3);}.cls-6{fill:#53c1e8;}.cls-7{fill:#515150;}.cls-8{fill:#767675;}.cls-9{fill:#ff5a16;}.cls-10{fill:#fff;}.cls-11{fill:#415463;}.cls-12{clip-path:url(#clip-path-4);}.cls-13{clip-path:url(#clip-path-5);}.cls-14{fill:#ffb716;}.cls-15{fill:#92c712;}.cls-16{fill:#ff9800;}.cls-17{fill:url(#Dégradé_sans_nom_23);}.cls-18{fill:url(#Dégradé_sans_nom_16);}.cls-19{fill:url(#Dégradé_sans_nom_16-2);}.cls-20{fill:url(#Dégradé_sans_nom_18);}</style>
  <clipPath id="clip-path">
   <path id="path4" class="cls-1" d="m523 36.85h-479.06a7.09 7.09 0 0 0-7.09 7.09v223.93a7.09 7.09 0 0 0 7.09 7.13h365.67a7.09 7.09 0 0 0 7.09-7.09v-2.91a7.09 7.09 0 0 1 7.09-7.09h73.7a7.09 7.09 0 0 1 7.09 7.09v2.83a7.09 7.09 0 0 0 7.09 7.09h11.33a7.09 7.09 0 0 0 7.09-7.09v-223.89a7.09 7.09 0 0 0-7.09-7.09z" fill="none"/>
  </clipPath>
  <clipPath id="clip-path-2">
   <path id="path7" class="cls-1" d="m530.08 36.85h-493.23v238.15h493.23z" fill="none"/>
  </clipPath>
  <clipPath id="clip-path-3">
   <rect id="rect10" class="cls-1" x="24.31" y="86.18" width="520.5" height="326.84" fill="none"/>
  </clipPath>
  <clipPath id="clip-path-4">
   <path id="path13" class="cls-1" d="m414.69 160.42c4.84 5.84 13.05 7 18.33 2.63s5.64-12.67 0.8-18.5-10.76-4.25-16 0.13-7.97 9.9-3.13 15.74z" fill="none"/>
  </clipPath>
  <clipPath id="clip-path-5">
   <path id="path16" class="cls-1" d="m407.84 160.42c-4.84 5.84-13 7-18.33 2.63s-5.64-12.67-0.8-18.5 10.76-4.25 16 0.13 7.97 9.9 3.13 15.74z" fill="none"/>
  </clipPath>
  <linearGradient id="Dégradé_sans_nom_23" x1="155.91" x2="155.91" y1="132.26" y2="149.27" gradientUnits="userSpaceOnUse">
   <stop id="stop19" stop-color="#fff" stop-opacity=".29" offset="0"/>
   <stop id="stop21" stop-color="#fff" stop-opacity="0" offset="1"/>
  </linearGradient>
  <linearGradient id="Dégradé_sans_nom_16" x1="240.92" x2="240.92" y1="146.51" y2="169.55" gradientUnits="userSpaceOnUse">
   <stop id="stop24" stop-color="#fff" stop-opacity=".31" offset="0"/>
   <stop id="stop26" stop-color="#fff" stop-opacity="0" offset="1"/>
  </linearGradient>
  <linearGradient id="Dégradé_sans_nom_16-2" x1="326.08" x2="326.08" y1="145.09" y2="168.58" xlink:href="#Dégradé_sans_nom_16"/>
  <linearGradient id="Dégradé_sans_nom_18" x1="411.33" x2="411.33" y1="131.14" y2="154.63" gradientUnits="userSpaceOnUse">
   <stop id="stop30" stop-color="#fff" stop-opacity=".25" offset="0"/>
   <stop id="stop32" stop-color="#fff" stop-opacity="0" offset="1"/>
  </linearGradient>
 </defs>
 <title id="title37">Plan de travail 2 copie 23</title>
 <g id="g190" class="cls-2" transform="matrix(1.1447 0 0 1.1447 -42.18 -42.18)" clip-path="url(#clip-path)">
  <g id="g75" class="cls-3" clip-path="url(#clip-path-2)">
   <rect id="rect39" class="cls-4" x="24.31" y="86.18" width="520.5" height="273.83" fill="#4db0e7"/>
   <g id="g69" class="cls-5" clip-path="url(#clip-path-3)" fill="#53c1e8">
    <path id="path41" class="cls-6" d="m124.67 248q1.6 12.57-15 21.84a68.31 68.31 0 0 1-24.89 8.47q-5.61 0.71-18.86-5.39t-14.92-10.07c0.36-0.68 0.75-1.35 1.17-2a2.52 2.52 0 0 1 1.95-1.18q2.8-0.36 12 3.85t17.24 3.18a52.74 52.74 0 0 0 5.76-1.51 57.2 57.2 0 0 1 5.59-1.49q2.8-0.36 9.28-4.76 7.1-4.79 6.72-7.71-0.57-4.45-27.66-10.65-34.87-8-36.63-8.73a34.22 34.22 0 0 1-8.73-5.43q-6.33-4.95-6.8-8.63-1.17-9.19 20.68-24.44 19.86-13.74 27.94-14.77a76.16 76.16 0 0 1 20.81 0.31q15.88 2.34 17 10.77 0.35 2.76-10.08 23.55c-0.8 0.73-1.65 1.46-2.57 2.2a9.59 9.59 0 0 1-4.07 2.23l-4 0.5c-0.88 0.11-2-0.74-3.25-2.54a10.72 10.72 0 0 1-2.13-4.25q-0.22-1.1 4.21-9.35t4.26-9.34q-0.27-2.15-5.42-3a23.27 23.27 0 0 0-7.24-0.32q-6.44 0.82-22.75 10.84-17.28 10.54-16.62 15.43 0.72 5.67 14.72 9l14.35 2.22q20.06 4.92 25 6.47 22 7.17 23 14.67"/>
    <path id="path43" class="cls-6" d="m124.67 248q1.6 12.57-15 21.84a68.31 68.31 0 0 1-24.89 8.47q-5.61 0.71-18.86-5.39t-14.92-10.07c0.36-0.68 0.75-1.35 1.17-2a2.52 2.52 0 0 1 1.95-1.18q2.8-0.36 12 3.85t17.24 3.18a52.74 52.74 0 0 0 5.76-1.51 57.2 57.2 0 0 1 5.59-1.49q2.8-0.36 9.28-4.76 7.1-4.79 6.72-7.71-0.57-4.45-27.66-10.65-34.87-8-36.63-8.73a34.22 34.22 0 0 1-8.73-5.43q-6.33-4.95-6.8-8.63-1.17-9.19 20.68-24.44 19.86-13.74 27.94-14.77a76.16 76.16 0 0 1 20.81 0.31q15.88 2.34 17 10.77 0.35 2.76-10.08 23.55c-0.8 0.73-1.65 1.46-2.57 2.2a9.59 9.59 0 0 1-4.07 2.23l-4 0.5c-0.88 0.11-2-0.74-3.25-2.54a10.72 10.72 0 0 1-2.13-4.25q-0.22-1.1 4.21-9.35t4.26-9.34q-0.27-2.15-5.42-3a23.27 23.27 0 0 0-7.24-0.32q-6.44 0.82-22.75 10.84-17.28 10.54-16.62 15.43 0.72 5.67 14.72 9l14.35 2.22q20.06 4.92 25 6.47 21.98 7.21 22.94 14.7z"/>
    <path id="path45" class="cls-6" d="m294.22 246.47a7.77 7.77 0 0 1-2.06 6c-1.64 2-3.1 3-4.41 3.21a8 8 0 0 1-6.75-2.1q-2.09-12.49-4.36-25.1-5.44-27.15-11.69-43.61-9.07-22.94-18.88-21.69-15.84 2-19.71 35.63a189 189 0 0 0 0.3 45.37l0.51 4a15.19 15.19 0 0 1-7.9 3.8l-5.18 0.66q-1.46 0.19-2.94-1.73a7.61 7.61 0 0 1-1.69-3.59c-0.09-0.71 0.07-4 0.48-9.93s0.57-9.22 0.47-9.94l-2.9-22.8q-0.57-4.44-6.2-17.4-6.82-15.77-11.72-15.15l-2.71-0.43q-19.95 2.54-27.18 27.87-3.9 13.71-5.08 46.21-1 24.54-5.6 25.13-4.41 0.56-8-5.35a23.87 23.87 0 0 1-3.74-9.79q-0.12-0.92-0.65-12.28t-0.63-12.46l-6-47.43a7.88 7.88 0 0 1 2.61-6.87 10 10 0 0 1 5.92-3.09 5.16 5.16 0 0 1 5.26 2.13l2.79 21.88q11-19.13 17.3-25.84a40 40 0 0 1 25.08-13q8.17-1 18.05 12.63 7.5 10.7 8.92 16.59 9.51-21.89 11.18-24.44 6.47-10.46 17.58-11.88 21.74-2.77 37.23 41.91a262.67 262.67 0 0 1 12.37 52.85"/>
    <path id="path47" class="cls-6" d="m294.22 246.47a7.77 7.77 0 0 1-2.06 6c-1.64 2-3.1 3-4.41 3.21a8 8 0 0 1-6.75-2.1q-2.09-12.49-4.36-25.1-5.44-27.15-11.69-43.61-9.07-22.94-18.88-21.69-15.84 2-19.71 35.63a189 189 0 0 0 0.3 45.37l0.51 4a15.19 15.19 0 0 1-7.9 3.8l-5.18 0.66q-1.46 0.19-2.94-1.73a7.61 7.61 0 0 1-1.69-3.59c-0.09-0.71 0.07-4 0.48-9.93s0.57-9.22 0.47-9.94l-2.9-22.8q-0.57-4.44-6.2-17.4-6.82-15.77-11.72-15.15l-2.71-0.43q-19.95 2.54-27.18 27.87-3.9 13.71-5.08 46.21-1 24.54-5.6 25.13-4.41 0.56-8-5.35a23.87 23.87 0 0 1-3.74-9.79q-0.12-0.92-0.65-12.28t-0.63-12.46l-6-47.43a7.88 7.88 0 0 1 2.61-6.87 10 10 0 0 1 5.92-3.09 5.16 5.16 0 0 1 5.26 2.13l2.79 21.88q11-19.13 17.3-25.84a40 40 0 0 1 25.08-13q8.17-1 18.05 12.63 7.5 10.7 8.92 16.59 9.51-21.89 11.18-24.44 6.47-10.46 17.58-11.88 21.74-2.77 37.23 41.91a262.67 262.67 0 0 1 12.3 52.88z"/>
    <path id="path49" class="cls-6" d="m522.66 177.29q-1.33-10.42-10.7-19.66-8.27-7.05-16.69-14.08a39 39 0 0 1-7.52-2.47q-5-2.17-6-2-1.48 0.19-5 2.81a38.62 38.62 0 0 0-5.43 4.74q-7.18 8.08-10 21.67a56.84 56.84 0 0 0-1.35 19.64q1.46 11.49 9.23 18.6 8.77 8.38 22.45 6.64a36 36 0 0 0 23-12.51q9.51-10.79 7.9-23.36m14-3a39.39 39.39 0 0 1-10.45 32.95q-12.87 14.1-32.79 16.63a44.3 44.3 0 0 1-31.31-7.23q-14-9.43-16.08-25.68-2.15-16.86 6.64-37.29 11-25.69 32.39-28.43a24.22 24.22 0 0 1 6.47 0.82c3.21 0.68 5.3 1.35 6.28 2a8.3 8.3 0 0 1 2.62 3.48 20.85 20.85 0 0 0 1.77 3.36q0.61 0.85 6.37 4a37.15 37.15 0 0 1 7.69 5.09q19.25 21.07 20.43 30.27"/>
    <path id="path51" class="cls-6" d="m522.66 177.29q-1.33-10.42-10.7-19.66-8.27-7.05-16.69-14.08a39 39 0 0 1-7.52-2.47q-5-2.17-6-2-1.48 0.19-5 2.81a38.62 38.62 0 0 0-5.43 4.74q-7.18 8.08-10 21.67a56.84 56.84 0 0 0-1.35 19.64q1.46 11.49 9.23 18.6 8.77 8.38 22.45 6.64a36 36 0 0 0 23-12.51q9.61-10.81 8.01-23.38zm14-3a39.39 39.39 0 0 1-10.45 32.95q-12.87 14.1-32.79 16.63a44.3 44.3 0 0 1-31.31-7.23q-14-9.43-16.08-25.68-2.15-16.86 6.64-37.29 11-25.69 32.39-28.43a24.22 24.22 0 0 1 6.47 0.82c3.21 0.68 5.3 1.35 6.28 2a8.3 8.3 0 0 1 2.62 3.48 20.85 20.85 0 0 0 1.77 3.36q0.61 0.85 6.37 4a37.15 37.15 0 0 1 7.69 5.09q19.24 21.08 20.42 30.27z"/>
    <path id="path53" class="cls-6" d="m296.58 269.7c47.84 63.68 127.57 20.21 170-24.35 3-3.11-11.36 0.11-14.06 2.94-30.23 31.76-70.64 60.28-114.13 37.19-10-5.32-19.79-12.83-26.66-22-2.71-3.61-16.75 4.05-15.14 6.19"/>
    <path id="path55" class="cls-6" d="m405.41 228.18q-34.24 25.46-42.08 26.46a2.71 2.71 0 0 0-1.34 0.49 3.06 3.06 0 0 1-1.47 0.51q-1.65 0.21-5.11-2.27t-3.56-3.26q-2.79-21.92-4.08-47.42-1.38-26.26-1.64-28.31 4.38-2.91 5.9-3.1a10.16 10.16 0 0 1 3 0.4 10.19 10.19 0 0 0 3.4 0.35 21.92 21.92 0 0 0 0.76 2.64 19.92 19.92 0 0 1 0.81 3 33.44 33.44 0 0 1-0.52 4.75 35.25 35.25 0 0 0-0.56 6.59q0.59 20 2.11 31.91 1.88 14.74 3.88 20.61l36.71-17.06a5.32 5.32 0 0 1 3.5 1.12z"/>
    <path id="path57" class="cls-6" d="m332.9 219.71q0.31 2.43-3.51 2.92-9.76 1.24-17.78-20-5-13.48-6.26-23.21-0.83-6.49-0.37-8.61 1-5.59 7.38-6.4 5.65-0.72 6.55 6.28 0.65 5.07-0.54 7.08 0.79 0.52 1.6 12.57 1.65 5 7.43 17.7 5.54 12 5.51 11.66"/>
    <path id="path59" class="cls-6" d="m332.9 219.71q0.31 2.43-3.51 2.92-9.76 1.24-17.78-20-5-13.48-6.26-23.21-0.83-6.49-0.37-8.61 1-5.59 7.38-6.4 5.65-0.72 6.55 6.28 0.65 5.07-0.54 7.08 0.79 0.52 1.6 12.57 1.65 5 7.43 17.7 5.53 11.96 5.5 11.67z"/>
    <path id="path61" class="cls-6" d="m428.81 207.5q0.31 2.43-3.51 2.92-9.75 1.24-17.78-20-5-13.48-6.26-23.21-0.83-6.49-0.38-8.61 1-5.59 7.38-6.4 5.65-0.72 6.55 6.28 0.65 5.07-0.54 7.08 0.79 0.52 1.6 12.57 1.65 5 7.43 17.7 5.54 12 5.51 11.66"/>
    <path id="path63" class="cls-6" d="m428.81 207.5q0.31 2.43-3.51 2.92-9.75 1.24-17.78-20-5-13.48-6.26-23.21-0.83-6.49-0.38-8.61 1-5.59 7.38-6.4 5.65-0.72 6.55 6.28 0.65 5.07-0.54 7.08 0.79 0.52 1.6 12.57 1.65 5 7.43 17.7 5.55 11.97 5.51 11.67z"/>
    <path id="path65" class="cls-6" d="m327.28 135.46q0.49 3.87-5.58 9.89-5.36 5.17-7.54 5.45-6.54 0.83-11.88-4.85-4.41-4.69-5-9.67-0.28-2.21 1.86-7.54 2.76-6.73 6.52-7.2 5.95-0.76 13.44 3.72t8.23 10.19"/>
    <path id="path67" class="cls-6" d="m421.42 123.47q0.49 3.87-5.58 9.89-5.36 5.17-7.54 5.45-6.54 0.83-11.88-4.85-4.41-4.69-5-9.67-0.28-2.21 1.86-7.54 2.76-6.73 6.52-7.2 5.95-0.76 13.44 3.72t8.23 10.19"/>
   </g>
   <ellipse id="ellipse71" class="cls-7" cx="283.46" cy="91.39" rx="305.34" ry="71" fill="#515150"/>
   <rect id="rect73" class="cls-7" x="15.25" y="18.39" width="527.33" height="56.39" fill="#515150"/>
  </g>
  <g id="CIRCLE">
   <path id="path77" class="cls-7" d="m367 156.08a44 44 0 1 1 44 44 44 44 0 0 1-44-44z" fill="#515150"/>
  </g>
  <g id="CIRCLE-2" data-name="CIRCLE">
   <path id="path80" class="cls-7" d="m111.92 156a44 44 0 1 1 44 44 44 44 0 0 1-44-44z" fill="#515150"/>
  </g>
  <g id="CIRCLE-3" data-name="CIRCLE">
   <path id="display2" class="cls-8" d="m280.63 101.34a2.83 2.83 0 1 1 2.83 2.83 2.83 2.83 0 0 1-2.83-2.83z" fill="#767675">
    <desc id="desc4739">Display 2</desc>
   </path>
  </g>
  <g id="CIRCLE-4" data-name="CIRCLE">
   <path id="display3" class="cls-8" d="m301.89 101.34a2.83 2.83 0 1 1 2.83 2.83 2.83 2.83 0 0 1-2.83-2.83z" fill="#767675">
    <desc id="desc4741">Display 3</desc>
   </path>
  </g>
  <g id="CIRCLE-5" data-name="CIRCLE">
   <path id="display1" class="cls-8" d="m259.37 101.34a2.83 2.83 0 1 1 2.83 2.83 2.83 2.83 0 0 1-2.83-2.83z" fill="#767675">
    <desc id="desc4737">Display 1</desc>
   </path>
  </g>
  <g id="CIRCLE-6" data-name="CIRCLE">
   <path id="path92" class="cls-7" d="m197 170.37a44 44 0 1 1 44 44 44 44 0 0 1-44-44z" fill="#515150"/>
  </g>
  <circle id="circle95" class="cls-9" cx="411.24" cy="156.08" r="31.32" fill="#ff5a16"/>
  <path id="path97" class="cls-10" d="m407.8 160.42c-4.84 5.84-13 7-18.33 2.63s-5.64-12.67-0.8-18.5 10.76-4.25 16 0.13 7.97 9.9 3.13 15.74z" fill="#fff"/>
  <path id="path99" class="cls-10" d="m414.69 160.42c4.84 5.84 13.05 7 18.33 2.63s5.64-12.67 0.8-18.5-10.76-4.25-16 0.13-7.97 9.9-3.13 15.74z" fill="#fff"/>
  <path id="path101" class="cls-11" d="m421.83 175.56h-0.25a2 2 0 0 1-1.71-1.88c-0.18-0.26-1.57-1.87-8.94-1.87s-8.76 1.61-8.94 1.87a2 2 0 0 1-3.9 0.18 3.72 3.72 0 0 1 1-2.86c1.84-2.09 5.7-3.1 11.81-3.1s10 1 11.81 3.1a3.72 3.72 0 0 1 1 2.87 2 2 0 0 1-1.88 1.69z" fill="#415463"/>
  <g id="g105" class="cls-12" clip-path="url(#clip-path-4)">
   <circle id="circle103" class="cls-11" cx="418.65" cy="146.18" r="5.09" fill="#415463"/>
  </g>
  <g id="g109" class="cls-13" clip-path="url(#clip-path-5)">
   <circle id="circle107" class="cls-11" cx="403.88" cy="146.18" r="5.09" fill="#415463"/>
  </g>
  <g id="CIRCLE-7" data-name="CIRCLE">
   <path id="path111" class="cls-7" d="m281.78 170.28a44 44 0 1 1 44 44 44 44 0 0 1-44-44z" fill="#515150"/>
  </g>
  <circle id="circle114" class="cls-14" cx="240.97" cy="170.37" r="31.32" fill="#ffb716"/>
  <path id="path116" class="cls-11" d="m252.29 187.48h-22.6a2 2 0 0 1 0-3.92h22.61a2 2 0 0 1 0 3.92z" fill="#415463"/>
  <path id="path118" class="cls-10" d="m220 169.57c-1.92-5.94 0.88-12.17 6.26-13.9s11.29 1.67 13.21 7.61-0.93 13.21-6.31 14.94-11.29-2.71-13.16-8.65z" fill="#fff"/>
  <path id="path120" class="cls-10" d="m262 169.57c1.92-5.94-0.88-12.17-6.26-13.9s-11.29 1.67-13.21 7.61 0.93 13.21 6.31 14.94 11.27-2.71 13.16-8.65z" fill="#fff"/>
  <circle id="circle122" class="cls-11" cx="231.85" cy="170.62" r="4.38" fill="#415463"/>
  <circle id="circle124" class="cls-11" cx="249.98" cy="170.62" r="4.38" fill="#415463"/>
  <circle id="circle126" class="cls-15" cx="156.03" cy="156.19" r="31.32" fill="#92c712"/>
  <ellipse id="ellipse128" class="cls-10" transform="rotate(-18.82 145.11 149.22)" cx="145.07" cy="149.21" rx="8.62" ry="11.69" fill="#fff"/>
  <ellipse id="ellipse130" class="cls-10" transform="rotate(-71.18 166.98 149.21)" cx="166.99" cy="149.21" rx="11.69" ry="8.62" fill="#fff"/>
  <g fill="#415463">
   <ellipse id="ellipse132" class="cls-11" cx="146.64" cy="153.92" rx="3.94" ry="4.6"/>
   <ellipse id="ellipse134" class="cls-11" cx="165.95" cy="153.92" rx="3.94" ry="4.6"/>
   <path id="path136" class="cls-11" d="m135.7 165.63a21.81 21.81 0 0 0 41 0 63.16 63.16 0 0 1-20.5 3.13 63.16 63.16 0 0 1-20.5-3.13z"/>
  </g>
  <circle id="circle138" class="cls-16" cx="325.85" cy="170.23" r="31.32" fill="#ff9800"/>
  <path id="path140" class="cls-10" d="m304.84 169.43c-1.92-5.94 0.88-12.16 6.26-13.9s11.29 1.67 13.21 7.61-0.93 13.21-6.31 14.94-11.24-2.71-13.16-8.65z" fill="#fff"/>
  <path id="path142" class="cls-10" d="m346.91 169.43c1.92-5.94-0.88-12.16-6.26-13.9s-11.29 1.67-13.21 7.61 0.93 13.21 6.31 14.94 11.25-2.71 13.16-8.65z" fill="#fff"/>
  <g fill="#415463">
   <circle id="circle144" class="cls-11" cx="316.73" cy="163.04" r="4.38"/>
   <circle id="circle146" class="cls-11" cx="334.86" cy="163.04" r="4.38"/>
   <path id="path148" class="cls-11" d="m311.31 189.68a2.07 2.07 0 0 1-1.38-3.62 11.33 11.33 0 0 1 7.26-2.48 10.94 10.94 0 0 1 4.75 1.09 9 9 0 0 0 7.71 0 10.94 10.94 0 0 1 4.75-1.09 11.32 11.32 0 0 1 7.26 2.48 2.0724 2.0724 0 0 1-2.74 3.11 7.35 7.35 0 0 0-4.53-1.45 7 7 0 0 0-3.12 0.76 13.09 13.09 0 0 1-11 0 7 7 0 0 0-3.12-0.76 7.34 7.34 0 0 0-4.51 1.44 2.07 2.07 0 0 1-1.33 0.52z"/>
  </g>
  <g id="CIRCLE-8" data-name="CIRCLE">
   <path id="path150" class="cls-17" d="m127.49 155.21a28.42 28.42 0 1 1 28.42 28.42 28.42 28.42 0 0 1-28.42-28.42z"/>
  </g>
  <g id="CIRCLE-9" data-name="CIRCLE">
   <path id="path153" class="cls-18" d="m212.5 169.43a28.42 28.42 0 1 1 28.42 28.42 28.42 28.42 0 0 1-28.42-28.42z"/>
  </g>
  <g id="CIRCLE-10" data-name="CIRCLE">
   <path id="path156" class="cls-19" d="m297.66 169.38a28.42 28.42 0 1 1 28.42 28.42 28.42 28.42 0 0 1-28.42-28.42z"/>
  </g>
  <g id="CIRCLE-11" data-name="CIRCLE">
   <path id="path159" class="cls-20" d="m382.91 155.42a28.42 28.42 0 1 1 28.42 28.42 28.42 28.42 0 0 1-28.42-28.42z"/>
  </g>
  <g fill="#fff">
   <path id="path162" class="cls-10" d="m253.15 73.62q0 2.34-3.25 3.65a12.6 12.6 0 0 1-4.75 1 7.64 7.64 0 0 1-3.32-1.43q-2.29-1.42-2.5-2.19l0.26-0.34a0.46 0.46 0 0 1 0.38-0.17 5.63 5.63 0 0 1 2.1 1 5.82 5.82 0 0 0 3.08 1 9.73 9.73 0 0 0 1.09-0.14 10.55 10.55 0 0 1 1.06-0.14 4.92 4.92 0 0 0 1.81-0.66q1.41-0.71 1.41-1.25 0-0.83-4.81-2.59-6.19-2.28-6.5-2.45a6.31 6.31 0 0 1-1.47-1.2 2.88 2.88 0 0 1-1-1.74q0-1.71 4.35-4 4-2.05 5.46-2.05a14 14 0 0 1 3.8 0.54q2.85 0.8 2.85 2.36 0 0.51-2.39 4.07l-0.52 0.34a1.77 1.77 0 0 1-0.8 0.31h-0.74c-0.16 0-0.34-0.18-0.54-0.54a2 2 0 0 1-0.29-0.83 7.16 7.16 0 0 1 1-1.61 7.13 7.13 0 0 0 1-1.61q0-0.4-0.92-0.68a4.29 4.29 0 0 0-1.32-0.23 13.59 13.59 0 0 0-4.41 1.45q-3.4 1.54-3.4 2.45t2.48 2l2.57 0.74q3.56 1.37 4.41 1.77 3.86 1.82 3.86 3.22"/>
   <path id="path164" class="cls-10" d="m253.15 73.62q0 2.34-3.25 3.65a12.6 12.6 0 0 1-4.75 1 7.64 7.64 0 0 1-3.32-1.43q-2.29-1.42-2.5-2.19l0.26-0.34a0.46 0.46 0 0 1 0.38-0.17 5.63 5.63 0 0 1 2.1 1 5.82 5.82 0 0 0 3.08 1 9.73 9.73 0 0 0 1.09-0.14 10.55 10.55 0 0 1 1.06-0.14 4.92 4.92 0 0 0 1.81-0.66q1.41-0.71 1.41-1.25 0-0.83-4.81-2.59-6.19-2.28-6.5-2.45a6.31 6.31 0 0 1-1.47-1.2 2.88 2.88 0 0 1-1-1.74q0-1.71 4.35-4 4-2.05 5.46-2.05a14 14 0 0 1 3.8 0.54q2.85 0.8 2.85 2.36 0 0.51-2.39 4.07l-0.52 0.34a1.77 1.77 0 0 1-0.8 0.31h-0.74c-0.16 0-0.34-0.18-0.54-0.54a2 2 0 0 1-0.29-0.83 7.16 7.16 0 0 1 1-1.61 7.13 7.13 0 0 0 1-1.61q0-0.4-0.92-0.68a4.29 4.29 0 0 0-1.32-0.23 13.59 13.59 0 0 0-4.41 1.45q-3.4 1.54-3.4 2.45t2.48 2l2.57 0.74q3.56 1.37 4.41 1.77 3.82 1.78 3.82 3.17z"/>
   <path id="path166" class="cls-10" d="m284.2 77.29a1.81 1.81 0 0 1-1.4 1.54 1.48 1.48 0 0 1-1.19-0.54q-0.09-2.33-0.21-4.69a52.55 52.55 0 0 0-1.12-8.25q-1.12-4.41-2.95-4.41-2.95 0-4.43 6.06a34.86 34.86 0 0 0-1 8.31v0.69a2.8 2.8 0 0 1-1.53 0.51h-1q-0.27 0-0.5-0.38a1.4 1.4 0 0 1-0.22-0.7q0-0.2 0.32-1.81t0.32-1.81v-4.19a15.3 15.3 0 0 0-0.73-3.33q-0.88-3-1.79-3l-0.49-0.14q-3.71 0-5.62 4.47a40.36 40.36 0 0 0-2 8.33q-0.76 4.47-1.61 4.47t-1.34-1.17a4.4 4.4 0 0 1-0.46-1.88q0-0.17 0.17-2.26t0.17-2.29v-8.82a1.45 1.45 0 0 1 0.64-1.2 1.85 1.85 0 0 1 1.15-0.43 1 1 0 0 1 0.91 0.51v4.07a28.68 28.68 0 0 1 3.77-4.32 7.37 7.37 0 0 1 4.94-1.83q1.52 0 3 2.73a10.31 10.31 0 0 1 1.24 3.24q2.25-3.78 2.61-4.21a4.34 4.34 0 0 1 3.49-1.76q4 0 5.83 8.53a48.44 48.44 0 0 1 1 10"/>
   <path id="path168" class="cls-10" d="m284.2 77.29a1.81 1.81 0 0 1-1.4 1.54 1.48 1.48 0 0 1-1.19-0.54q-0.09-2.33-0.21-4.69a52.55 52.55 0 0 0-1.12-8.25q-1.12-4.41-2.95-4.41-2.95 0-4.43 6.06a34.86 34.86 0 0 0-1 8.31v0.69a2.8 2.8 0 0 1-1.53 0.51h-1q-0.27 0-0.5-0.38a1.4 1.4 0 0 1-0.22-0.7q0-0.2 0.32-1.81t0.32-1.81v-4.19a15.3 15.3 0 0 0-0.73-3.33q-0.88-3-1.79-3l-0.49-0.14q-3.71 0-5.62 4.47a40.36 40.36 0 0 0-2 8.33q-0.76 4.47-1.61 4.47t-1.34-1.17a4.4 4.4 0 0 1-0.46-1.88q0-0.17 0.17-2.26t0.17-2.29v-8.82a1.45 1.45 0 0 1 0.64-1.2 1.85 1.85 0 0 1 1.15-0.43 1 1 0 0 1 0.91 0.51v4.07a28.68 28.68 0 0 1 3.77-4.32 7.37 7.37 0 0 1 4.94-1.83q1.52 0 3 2.73a10.31 10.31 0 0 1 1.24 3.24q2.25-3.78 2.61-4.21a4.34 4.34 0 0 1 3.49-1.76q4 0 5.83 8.53a48.44 48.44 0 0 1 1.03 9.96z"/>
   <path id="path170" class="cls-10" d="m327.6 70a6.21 6.21 0 0 0-1.5-3.85q-1.35-1.48-2.73-3a7.19 7.19 0 0 1-1.32-0.63 3.66 3.66 0 0 0-1-0.51 2.54 2.54 0 0 0-1 0.4 7.12 7.12 0 0 0-1.1 0.74 8.45 8.45 0 0 0-2.33 3.73 10.48 10.48 0 0 0-0.7 3.56 5.4 5.4 0 0 0 1.25 3.62 4.8 4.8 0 0 0 4 1.74 6.63 6.63 0 0 0 4.5-1.75 5.3 5.3 0 0 0 2-4.09m2.64-0.23a7.26 7.26 0 0 1-2.68 5.78 9.54 9.54 0 0 1-6.39 2.28 8.17 8.17 0 0 1-5.56-2.05 6.48 6.48 0 0 1-2.34-5.07 13.22 13.22 0 0 1 2.01-6.67q2.6-4.44 6.59-4.45a4.47 4.47 0 0 1 1.16 0.3 3.89 3.89 0 0 1 1.1 0.51 1.53 1.53 0 0 1 0.4 0.7 3.85 3.85 0 0 0 0.25 0.66 5.72 5.72 0 0 0 1.07 0.88 6.85 6.85 0 0 1 1.29 1.11q3 4.3 3 6"/>
   <path id="path172" class="cls-10" d="m327.6 70a6.21 6.21 0 0 0-1.5-3.85q-1.35-1.48-2.73-3a7.19 7.19 0 0 1-1.32-0.63 3.66 3.66 0 0 0-1-0.51 2.54 2.54 0 0 0-1 0.4 7.12 7.12 0 0 0-1.1 0.74 8.45 8.45 0 0 0-2.33 3.73 10.48 10.48 0 0 0-0.7 3.56 5.4 5.4 0 0 0 1.25 3.62 4.8 4.8 0 0 0 4 1.74 6.63 6.63 0 0 0 4.5-1.75 5.3 5.3 0 0 0 1.93-4.05zm2.64-0.23a7.26 7.26 0 0 1-2.68 5.78 9.54 9.54 0 0 1-6.39 2.28 8.17 8.17 0 0 1-5.56-2.05 6.48 6.48 0 0 1-2.34-5.07 13.22 13.22 0 0 1 2.08-6.71q2.6-4.44 6.59-4.45a4.47 4.47 0 0 1 1.16 0.3 3.89 3.89 0 0 1 1.1 0.51 1.53 1.53 0 0 1 0.4 0.7 3.85 3.85 0 0 0 0.25 0.66 5.72 5.72 0 0 0 1.07 0.88 6.85 6.85 0 0 1 1.29 1.11q3.03 4.29 3.03 6.02z"/>
  </g>
  <path id="path174" class="cls-6" d="m284.09 81.59c7.27 12.76 22.87 6.67 31.66-0.5 0.61-0.5-2.08-0.24-2.64 0.21-6.27 5.11-14.33 9.38-21.74 4.15a15 15 0 0 1-4.37-4.64c-0.41-0.72-3.16 0.35-2.91 0.78" fill="#53c1e8"/>
  <path id="path176" class="cls-6" d="m305 76.53q-6.86 3.86-8.31 3.86a0.5 0.5 0 0 0-0.26 0.06 0.56 0.56 0 0 1-0.28 0.06 1.62 1.62 0 0 1-0.88-0.53q-0.58-0.54-0.58-0.68 0-4.07 0.36-8.77t0.36-5.22a3.53 3.53 0 0 1 1.15-0.43 1.87 1.87 0 0 1 0.54 0.14 1.88 1.88 0 0 0 0.61 0.14 4 4 0 0 0 0.08 0.5 3.67 3.67 0 0 1 0.08 0.57 6.17 6.17 0 0 1-0.21 0.86 6.5 6.5 0 0 0-0.26 1.19q-0.4 3.72-0.4 5.89a22.06 22.06 0 0 0 0.23 3.86l7.11-2.26a1 1 0 0 1 0.61 0.29z" fill="#53c1e8"/>
  <g fill="#fff">
   <path id="path178" class="cls-10" d="m291.9 73.29q0 0.45-0.71 0.45-1.81 0-2.79-4.07a19.81 19.81 0 0 1-0.6-4.39 5.93 5.93 0 0 1 0.13-1.58 1.4 1.4 0 0 1 1.5-1q1 0 1.05 1.3a2.22 2.22 0 0 1-0.26 1.28 8.31 8.31 0 0 1 0 2.34q0.18 1 0.95 3.41t0.74 2.26"/>
   <path id="path180" class="cls-10" d="m291.9 73.29q0 0.45-0.71 0.45-1.81 0-2.79-4.07a19.81 19.81 0 0 1-0.6-4.39 5.93 5.93 0 0 1 0.13-1.58 1.4 1.4 0 0 1 1.5-1q1 0 1.05 1.3a2.22 2.22 0 0 1-0.26 1.28 8.31 8.31 0 0 1 0 2.34q0.18 1 0.95 3.41t0.73 2.26z"/>
   <path id="path182" class="cls-10" d="m309.73 73.29q0 0.45-0.71 0.45-1.81 0-2.79-4.07a19.81 19.81 0 0 1-0.6-4.39 6 6 0 0 1 0.13-1.58 1.4 1.4 0 0 1 1.5-1q1.05 0 1.05 1.3a2.22 2.22 0 0 1-0.26 1.28 8.31 8.31 0 0 1 0 2.34q0.18 1 0.95 3.41t0.74 2.26"/>
   <path id="path184" class="cls-10" d="m309.73 73.29q0 0.45-0.71 0.45-1.81 0-2.79-4.07a19.81 19.81 0 0 1-0.6-4.39 6 6 0 0 1 0.13-1.58 1.4 1.4 0 0 1 1.5-1q1.05 0 1.05 1.3a2.22 2.22 0 0 1-0.26 1.28 8.31 8.31 0 0 1 0 2.34q0.18 1 0.95 3.41t0.73 2.26z"/>
  </g>
  <path id="path186" class="cls-6" d="m292.84 57.75q0 0.72-1.25 1.68a3.54 3.54 0 0 1-1.51 0.82 2.49 2.49 0 0 1-2.08-1.16 3.21 3.21 0 0 1-0.7-1.89 3.31 3.31 0 0 1 0.52-1.34q0.66-1.17 1.36-1.17a4 4 0 0 1 2.37 1 2.72 2.72 0 0 1 1.27 2.06" fill="#53c1e8"/>
  <path id="path188" class="cls-6" d="m310.33 57.75q0 0.72-1.25 1.68a3.54 3.54 0 0 1-1.51 0.82 2.49 2.49 0 0 1-2.06-1.16 3.21 3.21 0 0 1-0.7-1.89 3.31 3.31 0 0 1 0.52-1.34q0.66-1.17 1.36-1.17a4 4 0 0 1 2.37 1 2.72 2.72 0 0 1 1.27 2.06" fill="#53c1e8"/>
  <g fill-opacity="0">
   <circle id="button1" class="cls-15" cx="156.03" cy="156.19" r="31.32">
    <desc id="desc4707">Bouton 1</desc>
   </circle>
   <circle id="button2" class="cls-14" cx="240.97" cy="170.37" r="31.32">
    <desc id="desc4711">Bouton 2</desc>
   </circle>
   <circle id="button3" class="cls-16" cx="325.85" cy="170.23" r="31.32">
    <desc id="desc4715">Bouton 3</desc>
   </circle>
  </g>
  <circle id="button4" class="cls-9" cx="411.24" cy="156.08" r="31.32" fill-opacity="0"/>
 </g>
</svg>
